<svg xmlns="http://www.w3.org/2000/svg" viewBox="0 0 240 92" role="img" aria-labelledby="title desc">
  <title id="title">Efecty</title>
  <desc id="desc">Logo de Efecty para informacion de pago.</desc>
  <rect width="240" height="92" rx="22" fill="#ffdd21"/>
  <path d="M31 62c0-15.4 12.3-27.8 28.4-27.8 8.6 0 16.3 3.4 21.4 8.9l-11.2 9.6c-2.5-2.9-5.8-4.6-10-4.6-6.8 0-11.7 4.4-12.7 10.9h35.7c.2 1.1.3 2.5.3 4.2 0 16.1-11.7 28.6-28.8 28.6C40.5 91.8 31 79.2 31 62Zm16.1 7.1c1.7 5.9 6.3 9.2 12.4 9.2 4.8 0 8.7-1.8 11.5-5.6H47.1v-3.6Z" fill="#d71920"/>
  <path d="M91 35.6h17.1v8.1c3.7-6.1 9.5-9.4 17.1-9.4 12.9 0 21.4 9.2 21.4 23.4v32.6h-17.1V60.7c0-7.2-3.7-11.5-10.1-11.5-6.7 0-11.3 4.7-11.3 12.3v28.8H91V35.6Zm63 0h17.1v54.7H154V35.6Zm-1.1-19.1c0-5.4 4.4-9.7 9.7-9.7 5.5 0 9.9 4.3 9.9 9.7s-4.4 9.7-9.9 9.7c-5.3 0-9.7-4.3-9.7-9.7Zm28.9 19.1h17.1v6.9c3.9-5.2 9.4-8.2 16.3-8.2 6.7 0 12.1 2.5 15.9 7.2l-10.2 11.9c-2.4-2.6-5-3.8-8.5-3.8-7.8 0-13.5 6-13.5 15.6v25.1h-17.1V35.6Z" fill="#d71920"/>
</svg>
